<svg width="80" height="80" viewBox="0 0 80 80" fill="none" xmlns="http://www.w3.org/2000/svg">
<path d="M65 74.9996C67.6522 74.9996 70.1957 73.946 72.0711 72.0707C73.9464 70.1953 75 67.6518 75 64.9996V37.7529L52.07 51.1596L63.6867 57.4129C64.2706 57.7277 64.7056 58.2614 64.8959 58.8969C65.0863 59.5323 65.0164 60.2173 64.7017 60.8013C64.3869 61.3852 63.8531 61.8202 63.2177 62.0105C62.5823 62.2009 61.8972 62.131 61.3133 61.8163L42.37 51.6163C41.6416 51.2241 40.8273 51.0189 40 51.0189C39.1727 51.0189 38.3584 51.2241 37.63 51.6163L18.6867 61.8163C18.1044 62.1176 17.427 62.1782 16.8005 61.9849C16.174 61.7916 15.6485 61.3599 15.3372 60.7828C15.026 60.2058 14.9539 59.5295 15.1365 58.8998C15.319 58.2701 15.7417 57.7373 16.3133 57.4163L27.93 51.1596L5 37.7529V64.9996C5 67.6518 6.05357 70.1953 7.92893 72.0707C9.8043 73.946 12.3478 74.9996 15 74.9996H65Z" fill="#1F1F1F"/>
<path d="M5 31.9633V29.48C5.00035 27.6744 5.48953 25.9027 6.41562 24.3527C7.34172 22.8028 8.67017 21.5325 10.26 20.6766L35.26 7.21331C36.7168 6.42907 38.3455 6.01855 40 6.01855C41.6545 6.01855 43.2832 6.42907 44.74 7.21331L69.74 20.6766C71.3298 21.5325 72.6583 22.8028 73.5844 24.3527C74.5105 25.9027 74.9996 27.6744 75 29.48V31.9633L46.9133 48.3833L44.74 47.2166C43.2832 46.4324 41.6545 46.0219 40 46.0219C38.3455 46.0219 36.7168 46.4324 35.26 47.2166L33.0867 48.3833L5 31.9666V31.9633Z" fill="#1F1F1F"/>
</svg>
