<svg width="40" height="40" viewBox="0 0 40 40" fill="none" xmlns="http://www.w3.org/2000/svg">
<path fill-rule="evenodd" clip-rule="evenodd" d="M21.605 3.81005C21.5046 3.67545 21.3781 3.56247 21.233 3.47786C21.0879 3.39324 20.9273 3.33873 20.7607 3.31758C20.5941 3.29642 20.4249 3.30905 20.2633 3.35472C20.1017 3.40039 19.9509 3.47816 19.82 3.58338C16.6256 6.14808 14.5187 9.8255 13.9217 13.8784C12.8267 13.0835 11.8672 12.1172 11.08 11.0167C10.9731 10.8672 10.8345 10.7432 10.6741 10.6533C10.5137 10.5635 10.3355 10.5102 10.1522 10.4972C9.96881 10.4841 9.78483 10.5117 9.61335 10.5778C9.44186 10.644 9.28708 10.7472 9.16004 10.8801C6.95864 13.1824 5.54737 16.1258 5.13064 19.2839C4.71391 22.442 5.31337 25.6507 6.84218 28.4453C8.371 31.2399 10.7498 33.4752 13.6339 34.8275C16.5181 36.1798 19.7579 36.5788 22.884 35.9667C26.01 35.3546 28.8601 33.7633 31.0213 31.4231C33.1825 29.083 34.5426 26.1156 34.9046 22.9508C35.2665 19.7859 34.6116 16.5881 33.0346 13.8204C31.4576 11.0527 29.0405 8.85885 26.1334 7.55672C24.3462 6.68767 22.7934 5.40288 21.605 3.81005ZM26.25 23.75C26.2494 24.6541 26.0527 25.5473 25.6734 26.3679C25.2941 27.1885 24.7413 27.9171 24.0531 28.5034C23.3649 29.0897 22.5577 29.5196 21.6872 29.7637C20.8168 30.0077 19.9037 30.06 19.011 29.917C18.1184 29.7739 17.2674 29.4389 16.5167 28.9351C15.7661 28.4312 15.1337 27.7705 14.6632 26.9985C14.1927 26.2266 13.8953 25.3617 13.7914 24.4637C13.6876 23.5656 13.7798 22.6557 14.0617 21.7967C15.1084 22.5717 16.3117 23.1467 17.6167 23.4634C17.9709 21.1822 19.1047 19.0943 20.825 17.555C22.3264 17.755 23.7041 18.4933 24.702 19.6328C25.6999 20.7723 26.25 22.2354 26.25 23.75Z" fill="white"/>
</svg>
