<svg width="150" height="64" viewBox="0 0 150 64" fill="none" xmlns="http://www.w3.org/2000/svg">
<path fill-rule="evenodd" clip-rule="evenodd" d="M27.906 6.28259C28.2578 6.4784 28.5339 6.78637 28.6902 7.15739C28.8466 7.5284 28.8741 7.94109 28.7686 8.3296L23.9826 25.8758H41.4446C41.7958 25.8758 42.1393 25.9784 42.4329 26.171C42.7266 26.3637 42.9575 26.6379 43.0974 26.96C43.2372 27.2821 43.2799 27.6381 43.2202 27.9841C43.1605 28.3302 43.001 28.6512 42.7613 28.9078L17.534 55.937C17.2593 56.2321 16.8935 56.4264 16.4952 56.489C16.0969 56.5516 15.6892 56.4789 15.3371 56.2824C14.9851 56.0859 14.7091 55.777 14.5534 55.4051C14.3976 55.0333 14.371 54.6199 14.4779 54.2312L19.2639 36.6874H1.80183C1.45067 36.6874 1.10716 36.5848 0.813537 36.3922C0.519914 36.1995 0.288973 35.9253 0.149103 35.6032C0.00923356 35.2811 -0.03347 34.9251 0.0262426 34.5791C0.0859553 34.233 0.245481 33.912 0.485211 33.6554L25.7125 6.62616C25.9872 6.3322 26.3525 6.13866 26.75 6.07639C27.1476 6.01413 27.5545 6.08672 27.906 6.28259Z" fill="#1F1F1F"/>
<path d="M79.5025 50L63.2636 31.7063L79.1516 14.9161H86.5192L68.9773 33.1597L69.0274 30.0022L87.0204 50H79.5025ZM58.3018 50V14.9161H64.0656V50H58.3018ZM98.9 50.5012C96.7282 50.5012 94.7568 49.9499 92.9859 48.8472C91.2484 47.7446 89.8617 46.2577 88.8259 44.3866C87.8235 42.482 87.3223 40.3603 87.3223 38.0214C87.3223 35.649 87.8235 33.5273 88.8259 31.6561C89.8617 29.7516 91.2484 28.248 92.9859 27.1454C94.7568 26.0093 96.7282 25.4413 98.9 25.4413C100.738 25.4413 102.358 25.8422 103.762 26.6442C105.198 27.4127 106.334 28.4819 107.17 29.8518C108.005 31.2218 108.423 32.7755 108.423 34.513V41.4295C108.423 43.167 108.005 44.7207 107.17 46.0907C106.368 47.4606 105.249 48.5465 103.812 49.3484C102.375 50.1169 100.738 50.5012 98.9 50.5012ZM99.8022 45.2887C101.84 45.2887 103.478 44.6038 104.714 43.2338C105.984 41.8639 106.618 40.1097 106.618 37.9712C106.618 36.5345 106.334 35.2648 105.766 34.1621C105.198 33.0595 104.396 32.2075 103.361 31.606C102.358 30.9712 101.172 30.6537 99.8022 30.6537C98.4656 30.6537 97.2795 30.9712 96.2437 31.606C95.2413 32.2075 94.4393 33.0595 93.8379 34.1621C93.2699 35.2648 92.9859 36.5345 92.9859 37.9712C92.9859 39.408 93.2699 40.6777 93.8379 41.7803C94.4393 42.883 95.2413 43.7517 96.2437 44.3866C97.2795 44.988 98.4656 45.2887 99.8022 45.2887ZM106.268 50V43.5345L107.22 37.6705L106.268 31.8566V25.9425H111.781V50H106.268ZM116.095 46.9928L129.527 28.9497H135.993L122.56 46.9928H116.095ZM116.095 50V46.9928L121.107 44.988H135.692V50H116.095ZM116.997 30.9545V25.9425H135.993V28.9497L130.981 30.9545H116.997ZM140.562 50V25.9425H146.075V50H140.562ZM143.319 21.5319C142.383 21.5319 141.598 21.2145 140.963 20.5797C140.362 19.9448 140.061 19.1596 140.061 18.224C140.061 17.2885 140.362 16.5032 140.963 15.8684C141.598 15.2335 142.383 14.9161 143.319 14.9161C144.288 14.9161 145.073 15.2335 145.674 15.8684C146.276 16.5032 146.576 17.2885 146.576 18.224C146.576 19.1596 146.276 19.9448 145.674 20.5797C145.073 21.2145 144.288 21.5319 143.319 21.5319Z" fill="#1F1F1F"/>
</svg>
