<svg width="170" height="50" viewBox="0 0 170 50" fill="none" xmlns="http://www.w3.org/2000/svg">
<path d="M78.7157 42.5068L62.7377 24.5069L78.3705 7.9863H85.6199L68.3596 25.937L68.4089 22.8301L86.113 42.5068H78.7157ZM57.8555 42.5068V7.9863H63.5267V42.5068H57.8555Z" fill="#1F1F1F"/>
<path d="M98.7388 43C96.4374 43 94.3498 42.4575 92.4758 41.3726C90.6018 40.2548 89.1059 38.7589 87.9881 36.8849C86.9032 35.011 86.3607 32.9233 86.3607 30.6219C86.3607 28.3206 86.9032 26.2493 87.9881 24.4082C89.1059 22.5671 90.6018 21.1041 92.4758 20.0192C94.3498 18.9014 96.4374 18.3425 98.7388 18.3425C101.073 18.3425 103.177 18.8849 105.051 19.9699C106.925 21.0548 108.405 22.5342 109.49 24.4082C110.607 26.2493 111.166 28.3206 111.166 30.6219C111.166 32.9233 110.607 35.011 109.49 36.8849C108.405 38.7589 106.925 40.2548 105.051 41.3726C103.177 42.4575 101.073 43 98.7388 43ZM98.7388 37.7726C100.087 37.7726 101.27 37.4767 102.29 36.8849C103.342 36.2603 104.147 35.4055 104.706 34.3206C105.298 33.2356 105.594 32.0027 105.594 30.6219C105.594 29.2411 105.298 28.0247 104.706 26.9726C104.114 25.9206 103.309 25.0986 102.29 24.5069C101.27 23.8822 100.087 23.5699 98.7388 23.5699C97.4237 23.5699 96.2402 23.8822 95.1881 24.5069C94.169 25.0986 93.3635 25.9206 92.7717 26.9726C92.2128 28.0247 91.9333 29.2411 91.9333 30.6219C91.9333 32.0027 92.2128 33.2356 92.7717 34.3206C93.3635 35.4055 94.169 36.2603 95.1881 36.8849C96.2402 37.4767 97.4237 37.7726 98.7388 37.7726Z" fill="#1F1F1F"/>
<path d="M115.677 42.5068V18.8356H121.102V42.5068H115.677ZM121.102 29.3397L119.228 28.4027C119.228 25.411 119.886 22.9945 121.201 21.1534C122.549 19.2795 124.571 18.3425 127.266 18.3425C128.45 18.3425 129.518 18.5562 130.472 18.9836C131.425 19.411 132.313 20.1014 133.135 21.0548L129.584 24.7041C129.157 24.2438 128.68 23.9151 128.154 23.7178C127.628 23.5205 127.02 23.4219 126.329 23.4219C124.817 23.4219 123.568 23.8986 122.581 24.8521C121.595 25.8055 121.102 27.3014 121.102 29.3397Z" fill="#1F1F1F"/>
<path d="M147.904 43C146.096 43 144.485 42.6219 143.071 41.8658C141.657 41.0767 140.54 40.0082 139.718 38.6603C138.929 37.3123 138.534 35.7836 138.534 34.074V27.2685C138.534 25.5589 138.945 24.0301 139.767 22.6822C140.589 21.3342 141.707 20.2822 143.12 19.526C144.534 18.737 146.129 18.3425 147.904 18.3425C150.041 18.3425 151.964 18.9014 153.674 20.0192C155.416 21.1041 156.781 22.5836 157.767 24.4575C158.786 26.2986 159.296 28.3863 159.296 30.7205C159.296 33.0219 158.786 35.1096 157.767 36.9836C156.781 38.8247 155.416 40.2877 153.674 41.3726C151.964 42.4575 150.041 43 147.904 43ZM147.016 37.8712C148.331 37.8712 149.482 37.5753 150.468 36.9836C151.488 36.3589 152.277 35.5041 152.836 34.4192C153.427 33.3342 153.723 32.0849 153.723 30.6712C153.723 29.2575 153.427 28.0082 152.836 26.9233C152.277 25.8384 151.488 25 150.468 24.4082C149.482 23.7836 148.331 23.4712 147.016 23.4712C145.701 23.4712 144.534 23.7836 143.515 24.4082C142.496 25 141.707 25.8384 141.148 26.9233C140.589 28.0082 140.309 29.2575 140.309 30.6712C140.309 32.0849 140.589 33.3342 141.148 34.4192C141.707 35.5041 142.496 36.3589 143.515 36.9836C144.534 37.5753 145.701 37.8712 147.016 37.8712ZM135.23 42.5068V7H140.655V24.6548L139.718 30.3753L140.655 36.1452V42.5068H135.23Z" fill="#1F1F1F"/>
<path d="M163.886 42.5068V18.8356H169.311V42.5068H163.886ZM166.598 14.4959C165.678 14.4959 164.905 14.1836 164.28 13.5589C163.689 12.9342 163.393 12.1616 163.393 11.2411C163.393 10.3205 163.689 9.54794 164.28 8.92329C164.905 8.29863 165.678 7.9863 166.598 7.9863C167.552 7.9863 168.324 8.29863 168.916 8.92329C169.508 9.54794 169.804 10.3205 169.804 11.2411C169.804 12.1616 169.508 12.9342 168.916 13.5589C168.324 14.1836 167.552 14.4959 166.598 14.4959Z" fill="#1F1F1F"/>
<path fill-rule="evenodd" clip-rule="evenodd" d="M27.6537 0.225845C28.0023 0.419878 28.2759 0.725068 28.4308 1.09273C28.5857 1.46039 28.6131 1.86934 28.5085 2.25435L23.7658 19.6419H41.0699C41.4179 19.6419 41.7583 19.7436 42.0493 19.9345C42.3403 20.1253 42.5691 20.3971 42.7077 20.7163C42.8463 21.0355 42.8886 21.3882 42.8295 21.7311C42.7703 22.0741 42.6122 22.3922 42.3746 22.6465L17.3755 49.4313C17.1032 49.7237 16.7407 49.9163 16.3461 49.9783C15.9514 50.0404 15.5473 49.9683 15.1985 49.7736C14.8496 49.5788 14.5761 49.2727 14.4218 48.9042C14.2674 48.5357 14.2411 48.1261 14.347 47.7409L19.0897 30.3558H1.78554C1.43755 30.3558 1.09715 30.2541 0.806181 30.0632C0.515213 29.8723 0.286361 29.6006 0.147755 29.2814C0.00915008 28.9622 -0.0331674 28.6094 0.0260054 28.2665C0.0851781 27.9236 0.243262 27.6054 0.480824 27.3511L25.48 0.56631C25.7523 0.275001 26.1142 0.0832134 26.5082 0.0215105C26.9021 -0.0401924 27.3054 0.0317403 27.6537 0.225845Z" fill="#1F1F1F"/>
</svg>
