<svg width="30" height="30" viewBox="0 0 30 30" fill="none" xmlns="http://www.w3.org/2000/svg">
<path fill-rule="evenodd" clip-rule="evenodd" d="M18.2688 1.99357C18.4518 2.09544 18.5954 2.25567 18.6767 2.4487C18.7581 2.64173 18.7724 2.85644 18.7175 3.05857L16.2275 12.1873H25.3125C25.4952 12.1873 25.6739 12.2407 25.8267 12.3409C25.9794 12.4412 26.0996 12.5838 26.1724 12.7514C26.2451 12.919 26.2674 13.1042 26.2363 13.2842C26.2052 13.4643 26.1222 13.6313 25.9975 13.7648L12.8725 27.8273C12.7295 27.9808 12.5392 28.0819 12.332 28.1145C12.1248 28.1471 11.9127 28.1092 11.7295 28.007C11.5464 27.9048 11.4028 27.7441 11.3217 27.5506C11.2407 27.3571 11.2269 27.1421 11.2825 26.9398L13.7725 17.8123H4.6875C4.5048 17.8123 4.32608 17.7589 4.17332 17.6587C4.02056 17.5585 3.90041 17.4158 3.82764 17.2482C3.75486 17.0806 3.73265 16.8954 3.76371 16.7154C3.79478 16.5354 3.87778 16.3683 4.0025 16.2348L17.1275 2.17232C17.2705 2.01938 17.4605 1.91869 17.6673 1.88629C17.8742 1.8539 18.0859 1.89166 18.2688 1.99357Z" fill="#1F1F1F"/>
</svg>
