<svg width="18" height="22" viewBox="0 0 18 22" fill="none" xmlns="http://www.w3.org/2000/svg">
<path fill-rule="evenodd" clip-rule="evenodd" d="M4.59995 5C4.59995 3.80653 5.07406 2.66193 5.91797 1.81802C6.76188 0.974106 7.90648 0.5 9.09995 0.5C10.2934 0.5 11.438 0.974106 12.2819 1.81802C13.1258 2.66193 13.5999 3.80653 13.5999 5C13.5999 6.19347 13.1258 7.33807 12.2819 8.18198C11.438 9.02589 10.2934 9.5 9.09995 9.5C7.90648 9.5 6.76188 9.02589 5.91797 8.18198C5.07406 7.33807 4.59995 6.19347 4.59995 5ZM0.850949 19.105C0.88467 16.9395 1.76859 14.8741 3.31191 13.3546C4.85523 11.8351 6.93416 10.9834 9.09995 10.9834C11.2657 10.9834 13.3447 11.8351 14.888 13.3546C16.4313 14.8741 17.3152 16.9395 17.3489 19.105C17.3516 19.2508 17.3116 19.3942 17.234 19.5176C17.1564 19.641 17.0445 19.7392 16.9119 19.8C14.4611 20.9237 11.7961 21.5037 9.09995 21.5C6.31395 21.5 3.66695 20.892 1.28795 19.8C1.15544 19.7392 1.04352 19.641 0.965912 19.5176C0.888298 19.3942 0.848348 19.2508 0.850949 19.105Z" fill="#1F1F1F"/>
</svg>
