<svg width="40" height="40" viewBox="0 0 40 40" fill="none" xmlns="http://www.w3.org/2000/svg">
<path fill-rule="evenodd" clip-rule="evenodd" d="M15.525 12.64C20.325 6.47167 27.825 2.5 36.25 2.5C36.5815 2.5 36.8995 2.6317 37.1339 2.86612C37.3683 3.10054 37.5 3.41848 37.5 3.75C37.5 12.1767 33.5283 19.675 27.36 24.4767C27.6165 26.0837 27.5213 27.7273 27.081 29.294C26.6406 30.8607 25.8656 32.3133 24.8094 33.5514C23.7532 34.7895 22.441 35.7837 20.9632 36.4654C19.4855 37.1471 17.8774 37.5001 16.25 37.5C15.9185 37.5 15.6005 37.3683 15.3661 37.1339C15.1317 36.8995 15 36.5815 15 36.25V29.365C13.3799 28.0856 11.9154 26.6206 10.6367 25H3.75C3.41848 25 3.10054 24.8683 2.86612 24.6339C2.6317 24.3995 2.5 24.0815 2.5 23.75C2.49987 22.1224 2.85289 20.5142 3.53471 19.0363C4.21652 17.5584 5.21089 16.2461 6.44918 15.1899C7.68748 14.1336 9.14021 13.3586 10.7071 12.9184C12.274 12.4782 13.9178 12.3832 15.525 12.64ZM25 11.25C24.0054 11.25 23.0516 11.6451 22.3483 12.3483C21.6451 13.0516 21.25 14.0054 21.25 15C21.25 15.9946 21.6451 16.9484 22.3483 17.6516C23.0516 18.3549 24.0054 18.75 25 18.75C25.9946 18.75 26.9484 18.3549 27.6516 17.6516C28.3549 16.9484 28.75 15.9946 28.75 15C28.75 14.0054 28.3549 13.0516 27.6516 12.3483C26.9484 11.6451 25.9946 11.25 25 11.25Z" fill="white"/>
<path d="M8.76673 28.7366C8.89838 28.6385 9.0094 28.5154 9.09347 28.3743C9.17753 28.2332 9.23299 28.077 9.25666 27.9145C9.28034 27.752 9.27178 27.5864 9.23147 27.4272C9.19116 27.268 9.11989 27.1183 9.02173 26.9866C8.92356 26.855 8.80043 26.744 8.65936 26.6599C8.51829 26.5758 8.36204 26.5204 8.19954 26.4967C8.03704 26.473 7.87146 26.4816 7.71227 26.5219C7.55307 26.5622 7.40338 26.6335 7.27173 26.7316C5.99321 27.6827 4.99908 28.9652 4.39687 30.4405C3.79466 31.9157 3.6073 33.5276 3.85506 35.1016C3.89535 35.3638 4.018 35.6064 4.20526 35.7942C4.39252 35.9821 4.63469 36.1055 4.89673 36.1466C6.47095 36.3942 8.0829 36.2066 9.55818 35.6041C11.0335 35.0016 12.3159 34.0071 13.2667 32.7283C13.3681 32.597 13.4422 32.4469 13.485 32.2866C13.5277 32.1264 13.5381 31.9592 13.5156 31.7949C13.493 31.6306 13.438 31.4724 13.3538 31.3295C13.2695 31.1867 13.1577 31.062 13.0247 30.9628C12.8918 30.8636 12.7405 30.7919 12.5796 30.7518C12.4186 30.7116 12.2513 30.7039 12.0874 30.7291C11.9235 30.7543 11.7662 30.8118 11.6247 30.8984C11.4833 30.985 11.3604 31.0988 11.2634 31.2333C10.6822 32.015 9.92602 32.6497 9.05547 33.0868C8.18492 33.5238 7.22414 33.7509 6.25006 33.75C6.25006 31.7 7.23673 29.8783 8.76673 28.7366Z" fill="white"/>
</svg>
