<svg width="17" height="22" viewBox="0 0 17 22" fill="none" xmlns="http://www.w3.org/2000/svg">
<path fill-rule="evenodd" clip-rule="evenodd" d="M2.62005 0.827135C6.39404 0.389002 10.2061 0.389002 13.98 0.827135C15.477 1.00114 16.55 2.28713 16.55 3.75713V18.5001C16.55 19.2958 16.234 20.0588 15.6714 20.6215C15.1088 21.1841 14.3457 21.5001 13.55 21.5001H3.05005C2.2544 21.5001 1.49134 21.1841 0.928729 20.6215C0.366119 20.0588 0.0500488 19.2958 0.0500488 18.5001V3.75713C0.0500488 2.28713 1.12305 1.00114 2.62005 0.827135ZM3.80005 10.2501C3.80005 10.0512 3.87907 9.86046 4.01972 9.71981C4.16037 9.57915 4.35114 9.50014 4.55005 9.50014H4.55805C4.75696 9.50014 4.94773 9.57915 5.08838 9.71981C5.22903 9.86046 5.30805 10.0512 5.30805 10.2501V10.2581C5.30805 10.457 5.22903 10.6478 5.08838 10.7885C4.94773 10.9291 4.75696 11.0081 4.55805 11.0081H4.55005C4.35114 11.0081 4.16037 10.9291 4.01972 10.7885C3.87907 10.6478 3.80005 10.457 3.80005 10.2581V10.2501ZM4.55005 11.7501C4.35114 11.7501 4.16037 11.8292 4.01972 11.9698C3.87907 12.1105 3.80005 12.3012 3.80005 12.5001V12.5081C3.80005 12.9221 4.13605 13.2581 4.55005 13.2581H4.55805C4.75696 13.2581 4.94773 13.1791 5.08838 13.0385C5.22903 12.8978 5.30805 12.707 5.30805 12.5081V12.5001C5.30805 12.3012 5.22903 12.1105 5.08838 11.9698C4.94773 11.8292 4.75696 11.7501 4.55805 11.7501H4.55005ZM3.80005 14.7501C3.80005 14.5512 3.87907 14.3605 4.01972 14.2198C4.16037 14.0792 4.35114 14.0001 4.55005 14.0001H4.55805C4.75696 14.0001 4.94773 14.0792 5.08838 14.2198C5.22903 14.3605 5.30805 14.5512 5.30805 14.7501V14.7581C5.30805 14.957 5.22903 15.1478 5.08838 15.2885C4.94773 15.4291 4.75696 15.5081 4.55805 15.5081H4.55005C4.35114 15.5081 4.16037 15.4291 4.01972 15.2885C3.87907 15.1478 3.80005 14.957 3.80005 14.7581V14.7501ZM4.55005 16.2501C4.35114 16.2501 4.16037 16.3292 4.01972 16.4698C3.87907 16.6105 3.80005 16.8012 3.80005 17.0001V17.0081C3.80005 17.4221 4.13605 17.7581 4.55005 17.7581H4.55805C4.75696 17.7581 4.94773 17.6791 5.08838 17.5385C5.22903 17.3978 5.30805 17.207 5.30805 17.0081V17.0001C5.30805 16.8012 5.22903 16.6105 5.08838 16.4698C4.94773 16.3292 4.75696 16.2501 4.55805 16.2501H4.55005ZM6.29805 10.2501C6.29805 10.0512 6.37707 9.86046 6.51772 9.71981C6.65837 9.57915 6.84914 9.50014 7.04805 9.50014H7.05505C7.25396 9.50014 7.44473 9.57915 7.58538 9.71981C7.72603 9.86046 7.80505 10.0512 7.80505 10.2501V10.2581C7.80505 10.457 7.72603 10.6478 7.58538 10.7885C7.44473 10.9291 7.25396 11.0081 7.05505 11.0081H7.04805C6.84914 11.0081 6.65837 10.9291 6.51772 10.7885C6.37707 10.6478 6.29805 10.457 6.29805 10.2581V10.2501ZM7.04805 11.7501C6.84914 11.7501 6.65837 11.8292 6.51772 11.9698C6.37707 12.1105 6.29805 12.3012 6.29805 12.5001V12.5081C6.29805 12.9221 6.63305 13.2581 7.04805 13.2581H7.05505C7.25396 13.2581 7.44473 13.1791 7.58538 13.0385C7.72603 12.8978 7.80505 12.707 7.80505 12.5081V12.5001C7.80505 12.3012 7.72603 12.1105 7.58538 11.9698C7.44473 11.8292 7.25396 11.7501 7.05505 11.7501H7.04805ZM6.29805 14.7501C6.29805 14.5512 6.37707 14.3605 6.51772 14.2198C6.65837 14.0792 6.84914 14.0001 7.04805 14.0001H7.05505C7.25396 14.0001 7.44473 14.0792 7.58538 14.2198C7.72603 14.3605 7.80505 14.5512 7.80505 14.7501V14.7581C7.80505 14.957 7.72603 15.1478 7.58538 15.2885C7.44473 15.4291 7.25396 15.5081 7.05505 15.5081H7.04805C6.84914 15.5081 6.65837 15.4291 6.51772 15.2885C6.37707 15.1478 6.29805 14.957 6.29805 14.7581V14.7501ZM7.04805 16.2501C6.84914 16.2501 6.65837 16.3292 6.51772 16.4698C6.37707 16.6105 6.29805 16.8012 6.29805 17.0001V17.0081C6.29805 17.4221 6.63305 17.7581 7.04805 17.7581H7.05505C7.25396 17.7581 7.44473 17.6791 7.58538 17.5385C7.72603 17.3978 7.80505 17.207 7.80505 17.0081V17.0001C7.80505 16.8012 7.72603 16.6105 7.58538 16.4698C7.44473 16.3292 7.25396 16.2501 7.05505 16.2501H7.04805ZM8.80205 10.2501C8.80205 10.0512 8.88107 9.86046 9.02172 9.71981C9.16237 9.57915 9.35314 9.50014 9.55205 9.50014H9.56005C9.75896 9.50014 9.94973 9.57915 10.0904 9.71981C10.231 9.86046 10.31 10.0512 10.31 10.2501V10.2581C10.31 10.457 10.231 10.6478 10.0904 10.7885C9.94973 10.9291 9.75896 11.0081 9.56005 11.0081H9.55205C9.35314 11.0081 9.16237 10.9291 9.02172 10.7885C8.88107 10.6478 8.80205 10.457 8.80205 10.2581V10.2501ZM9.55205 11.7501C9.35314 11.7501 9.16237 11.8292 9.02172 11.9698C8.88107 12.1105 8.80205 12.3012 8.80205 12.5001V12.5081C8.80205 12.9221 9.13805 13.2581 9.55205 13.2581H9.56005C9.75896 13.2581 9.94973 13.1791 10.0904 13.0385C10.231 12.8978 10.31 12.707 10.31 12.5081V12.5001C10.31 12.3012 10.231 12.1105 10.0904 11.9698C9.94973 11.8292 9.75896 11.7501 9.56005 11.7501H9.55205ZM8.80205 14.7501C8.80205 14.5512 8.88107 14.3605 9.02172 14.2198C9.16237 14.0792 9.35314 14.0001 9.55205 14.0001H9.56005C9.75896 14.0001 9.94973 14.0792 10.0904 14.2198C10.231 14.3605 10.31 14.5512 10.31 14.7501V14.7581C10.31 14.957 10.231 15.1478 10.0904 15.2885C9.94973 15.4291 9.75896 15.5081 9.56005 15.5081H9.55205C9.35314 15.5081 9.16237 15.4291 9.02172 15.2885C8.88107 15.1478 8.80205 14.957 8.80205 14.7581V14.7501ZM9.55205 16.2501C9.35314 16.2501 9.16237 16.3292 9.02172 16.4698C8.88107 16.6105 8.80205 16.8012 8.80205 17.0001V17.0081C8.80205 17.4221 9.13805 17.7581 9.55205 17.7581H9.56005C9.75896 17.7581 9.94973 17.6791 10.0904 17.5385C10.231 17.3978 10.31 17.207 10.31 17.0081V17.0001C10.31 16.8012 10.231 16.6105 10.0904 16.4698C9.94973 16.3292 9.75896 16.2501 9.56005 16.2501H9.55205ZM11.3 10.2501C11.3 10.0512 11.3791 9.86046 11.5197 9.71981C11.6604 9.57915 11.8511 9.50014 12.05 9.50014H12.058C12.257 9.50014 12.4477 9.57915 12.5884 9.71981C12.729 9.86046 12.808 10.0512 12.808 10.2501V10.2581C12.808 10.457 12.729 10.6478 12.5884 10.7885C12.4477 10.9291 12.257 11.0081 12.058 11.0081H12.05C11.8511 11.0081 11.6604 10.9291 11.5197 10.7885C11.3791 10.6478 11.3 10.457 11.3 10.2581V10.2501ZM12.05 11.7501C11.8511 11.7501 11.6604 11.8292 11.5197 11.9698C11.3791 12.1105 11.3 12.3012 11.3 12.5001V12.5081C11.3 12.9221 11.636 13.2581 12.05 13.2581H12.058C12.257 13.2581 12.4477 13.1791 12.5884 13.0385C12.729 12.8978 12.808 12.707 12.808 12.5081V12.5001C12.808 12.3012 12.729 12.1105 12.5884 11.9698C12.4477 11.8292 12.257 11.7501 12.058 11.7501H12.05ZM3.80005 5.75013C3.80005 5.65164 3.81945 5.55412 3.85714 5.46312C3.89483 5.37213 3.95007 5.28945 4.01972 5.2198C4.08936 5.15016 4.17204 5.09492 4.26304 5.05723C4.35403 5.01953 4.45156 5.00013 4.55005 5.00013H12.05C12.249 5.00013 12.4397 5.07915 12.5804 5.2198C12.721 5.36046 12.8 5.55122 12.8 5.75013V6.50013C12.8 6.69905 12.721 6.88981 12.5804 7.03046C12.4397 7.17112 12.249 7.25013 12.05 7.25013H4.55005C4.35114 7.25013 4.16037 7.17112 4.01972 7.03046C3.87907 6.88981 3.80005 6.69905 3.80005 6.50013V5.75013ZM12.8 14.7501C12.8 14.5512 12.721 14.3605 12.5804 14.2198C12.4397 14.0792 12.249 14.0001 12.05 14.0001C11.8511 14.0001 11.6604 14.0792 11.5197 14.2198C11.3791 14.3605 11.3 14.5512 11.3 14.7501V17.0001C11.3 17.199 11.3791 17.3898 11.5197 17.5305C11.6604 17.6711 11.8511 17.7501 12.05 17.7501C12.249 17.7501 12.4397 17.6711 12.5804 17.5305C12.721 17.3898 12.8 17.199 12.8 17.0001V14.7501Z" fill="#1F1F1F"/>
</svg>
