<svg width="25" height="24" viewBox="0 0 25 24" fill="none" xmlns="http://www.w3.org/2000/svg">
<path d="M12.37 3.84011C12.5106 3.69966 12.7012 3.62077 12.9 3.62077C13.0987 3.62077 13.2894 3.69966 13.43 3.84011L22.12 12.5301C22.1886 12.6038 22.2714 12.6629 22.3634 12.7039C22.4554 12.7449 22.5548 12.7669 22.6555 12.7687C22.7562 12.7705 22.8562 12.752 22.9496 12.7142C23.043 12.6765 23.1278 12.6204 23.199 12.5492C23.2702 12.4779 23.3264 12.3931 23.3641 12.2997C23.4018 12.2063 23.4204 12.1063 23.4186 12.0056C23.4168 11.9049 23.3948 11.8056 23.3538 11.7136C23.3128 11.6216 23.2537 11.5388 23.18 11.4701L14.491 2.78011C14.2821 2.57118 14.034 2.40544 13.761 2.29237C13.488 2.17929 13.1955 2.12109 12.9 2.12109C12.6045 2.12109 12.3119 2.17929 12.0389 2.29237C11.766 2.40544 11.5179 2.57118 11.309 2.78011L2.61898 11.4701C2.48243 11.6116 2.40692 11.8011 2.40872 11.9978C2.41052 12.1944 2.48949 12.3825 2.62861 12.5215C2.76773 12.6605 2.95588 12.7393 3.15253 12.7409C3.34918 12.7425 3.5386 12.6668 3.67998 12.5301L12.37 3.84011Z" fill="#FFCC31"/>
<path d="M12.9 5.43218L21.059 13.5912C21.089 13.6212 21.119 13.6492 21.15 13.6772V19.8752C21.15 20.9102 20.31 21.7502 19.275 21.7502H15.9C15.7011 21.7502 15.5103 21.6712 15.3697 21.5305C15.229 21.3899 15.15 21.1991 15.15 21.0002V16.5002C15.15 16.3013 15.071 16.1105 14.9304 15.9698C14.7897 15.8292 14.5989 15.7502 14.4 15.7502H11.4C11.2011 15.7502 11.0103 15.8292 10.8697 15.9698C10.729 16.1105 10.65 16.3013 10.65 16.5002V21.0002C10.65 21.1991 10.571 21.3899 10.4304 21.5305C10.2897 21.6712 10.0989 21.7502 9.90002 21.7502H6.52502C6.02774 21.7502 5.55083 21.5526 5.1992 21.201C4.84757 20.8494 4.65002 20.3725 4.65002 19.8752V13.6772C4.68114 13.6493 4.71148 13.6207 4.74102 13.5912L12.9 5.43018V5.43218Z" fill="#FFCC31"/>
</svg>
