<svg width="19" height="22" viewBox="0 0 19 22" fill="none" xmlns="http://www.w3.org/2000/svg">
<path fill-rule="evenodd" clip-rule="evenodd" d="M12.315 0.594858C12.4614 0.676355 12.5764 0.804539 12.6414 0.958962C12.7065 1.11338 12.718 1.28515 12.674 1.44686L10.682 8.74986H17.95C18.0962 8.74987 18.2392 8.79258 18.3614 8.87276C18.4836 8.95293 18.5797 9.06706 18.6379 9.20113C18.6961 9.3352 18.7139 9.48336 18.6891 9.62739C18.6642 9.77142 18.5978 9.90505 18.498 10.0119L7.99803 21.2619C7.88366 21.3847 7.73142 21.4656 7.56565 21.4916C7.39988 21.5177 7.23017 21.4874 7.08364 21.4056C6.93712 21.3238 6.82225 21.1952 6.75742 21.0405C6.69259 20.8857 6.68154 20.7137 6.72603 20.5519L8.71803 13.2499H1.45003C1.30386 13.2498 1.16089 13.2071 1.03868 13.127C0.91647 13.0468 0.820349 12.9327 0.762133 12.7986C0.703916 12.6645 0.686142 12.5164 0.710996 12.3723C0.735849 12.2283 0.802247 12.0947 0.902026 11.9879L11.402 0.737858C11.5164 0.615504 11.6684 0.534951 11.8339 0.509035C11.9993 0.483119 12.1687 0.513331 12.315 0.594858Z" fill="#1F1F1F"/>
</svg>
